# xmcd
#
# Track frame offsets:
#	150
#	93610
#	130452
#	144258
#	170264
#	184244
#	201476
#	248418
#	281244
#	304675
#
# Disc length: 4433 seconds
#
# Revision: 0
# Processed by: cddbd v1.5.2PL0 Copyright (c) Steve Scherf et al.
# Submitted via: audiograbber 1.83.01
#
DISCID=92114f0a
DTITLE=Grateful Dead - 74-02-22 Winterland Arena, San Francisco CA
DYEAR=1974
DGENRE=Rock and Roll
TTITLE0=Playing In The Band
TTITLE1=Tennessee Jed
TTITLE2=Me and My Uncle
TTITLE3=Ship Of Fools
TTITLE4=The Race Is On
TTITLE5=China Cat Sunflower >
TTITLE6=I Know You Rider
TTITLE7=Truckin' >
TTITLE8=Nobody's Fault But Mine > Jam
TTITLE9=Going Down The Road Feeling Bad
EXTD=
EXTT0=
EXTT1=
EXTT2=
EXTT3=
EXTT4=
EXTT5=
EXTT6=
EXTT7=
EXTT8=
EXTT9=
PLAYORDER=
